<?xml version="1.0" encoding="iso-8859-1"?>
<!-- Generator: Adobe Illustrator 19.0.0, SVG Export Plug-In . SVG Version: 6.00 Build 0)  -->
<svg version="1.1" id="Layer_1" xmlns="http://www.w3.org/2000/svg" xmlns:xlink="http://www.w3.org/1999/xlink" x="0px" y="0px"
	 viewBox="0 0 502 502" style="enable-background:new 0 0 502 502;" xml:space="preserve">
<g>
	<g>
		<g>
			<path d="M398.956,0H103.044c-5.523,0-10,4.478-10,10v482c0,5.522,4.477,10,10,10h295.911c5.523,0,10-4.478,10-10V10
				C408.956,4.478,404.479,0,398.956,0z M388.956,20v57.703L331.253,20H388.956z M113.044,150.271
				c0.009-0.009,0.018-0.016,0.027-0.024l60.057-60.058l42.879,42.878c1.953,1.952,4.512,2.929,7.071,2.929s5.119-0.977,7.071-2.929
				c3.905-3.905,3.905-10.237,0-14.143l-42.878-42.878l9.881-9.881c3.905-3.905,3.905-10.237,0-14.143
				c-3.905-3.904-10.237-3.904-14.142,0l-69.964,69.965V20h189.922l85.988,85.988v8.604L211.101,292.448l-96.673-96.673
				c-0.432-0.432-0.898-0.808-1.383-1.145V150.271z M113.044,222.678l83.913,83.913l-80.84,80.84h-3.073V222.678z M113.044,482
				v-74.569h275.911V482H113.044z M388.956,387.43h-16.722l16.722-16.722V387.43z M388.958,342.425l-45.007,45.006H144.404
				l73.766-73.766c0.001-0.001,0.002-0.002,0.003-0.003c0.001-0.001,0.002-0.002,0.003-0.003l170.781-170.781v134.855l-42.629-42.63
				c-3.906-3.903-10.237-3.904-14.142,0c-3.905,3.905-3.905,10.237,0,14.143l56.772,56.772V342.425z"/>
			<path d="M251,414.886c-16.728,0-30.337,13.609-30.337,30.338s13.609,30.338,30.337,30.338c16.728,0,30.337-13.609,30.337-30.338
				S267.729,414.886,251,414.886z M251,455.562c-5.7,0-10.337-4.638-10.337-10.338S245.3,434.886,251,434.886
				s10.337,4.638,10.337,10.338S256.701,455.562,251,455.562z"/>
			<path d="M268.445,185.507c1.953,1.952,4.512,2.929,7.071,2.929s5.119-0.977,7.071-2.929c3.905-3.905,3.905-10.237,0-14.143
				l-20.437-20.437c-3.905-3.904-10.237-3.904-14.143,0c-3.905,3.905-3.905,10.237,0,14.143L268.445,185.507z"/>
		</g>
	</g>
</g>
<g>
</g>
<g>
</g>
<g>
</g>
<g>
</g>
<g>
</g>
<g>
</g>
<g>
</g>
<g>
</g>
<g>
</g>
<g>
</g>
<g>
</g>
<g>
</g>
<g>
</g>
<g>
</g>
<g>
</g>
</svg>
